<svg xmlns="http://www.w3.org/2000/svg" viewBox="0 0 256 256"><rect width="256" height="256" fill="#F4F3F0"/><rect x="69.55" y="20" width="32.8" height="32.8" rx="16.4" fill="#111113"/><rect x="123.41" y="20" width="37.13" height="37.13" rx="15.59" fill="#111113"/><rect x="181.59" y="20" width="41.45" height="41.45" rx="14.09" fill="#111113"/><rect x="20" y="69.55" width="32.8" height="32.8" rx="16.4" fill="#111113"/><rect x="69.55" y="69.55" width="37.13" height="37.13" rx="15.59" fill="#111113"/><rect x="123.41" y="69.55" width="41.45" height="41.45" rx="14.09" fill="#111113"/><rect x="181.59" y="69.55" width="45.76" height="45.76" rx="11.9" fill="#111113"/><rect x="20" y="123.41" width="37.13" height="37.13" rx="15.59" fill="#111113"/><rect x="69.55" y="123.41" width="41.45" height="41.45" rx="14.09" fill="#111113"/><rect x="123.41" y="123.41" width="45.76" height="45.76" rx="11.9" fill="#111113"/><rect x="181.59" y="123.41" width="50.09" height="50.09" rx="9.02" fill="#111113"/><rect x="20" y="181.59" width="41.45" height="41.45" rx="14.09" fill="#111113"/><rect x="69.55" y="181.59" width="45.76" height="45.76" rx="11.9" fill="#111113"/><rect x="123.41" y="181.59" width="50.09" height="50.09" rx="9.02" fill="#111113"/><rect x="181.59" y="181.59" width="54.4" height="54.4" rx="5.98" fill="#A8863F"/></svg>
